<svg width="50" height="50" viewBox="0 0 50 50" fill="none" xmlns="http://www.w3.org/2000/svg">
<path d="M4.6875 20.3125H21.0938V21.875H4.6875V20.3125Z" fill="#049585"/>
<path d="M4.6875 25H21.0938V26.5625H4.6875V25Z" fill="#049585"/>
<path d="M4.6875 29.6875H21.0938V31.25H4.6875V29.6875Z" fill="#049585"/>
<path d="M4.6875 34.375H21.0938V35.9375H4.6875V34.375Z" fill="#049585"/>
<path d="M4.6875 39.0625H21.0938V40.625H4.6875V39.0625Z" fill="#049585"/>
<path d="M4.6875 43.75H28.125V45.3125H4.6875V43.75Z" fill="#049585"/>
<path d="M5.46875 12.5H7.8125V14.8438C7.8125 15.051 7.89481 15.2497 8.04132 15.3962C8.18784 15.5427 8.38655 15.625 8.59375 15.625H11.7188C11.926 15.625 12.1247 15.5427 12.2712 15.3962C12.4177 15.2497 12.5 15.051 12.5 14.8438V12.5H14.8438C15.051 12.5 15.2497 12.4177 15.3962 12.2712C15.5427 12.1247 15.625 11.926 15.625 11.7188V8.59375C15.625 8.38655 15.5427 8.18784 15.3962 8.04132C15.2497 7.89481 15.051 7.8125 14.8438 7.8125H12.5V5.46875C12.5 5.26155 12.4177 5.06284 12.2712 4.91632C12.1247 4.76981 11.926 4.6875 11.7188 4.6875H8.59375C8.38655 4.6875 8.18784 4.76981 8.04132 4.91632C7.89481 5.06284 7.8125 5.26155 7.8125 5.46875V7.8125H5.46875C5.26155 7.8125 5.06284 7.89481 4.91632 8.04132C4.76981 8.18784 4.6875 8.38655 4.6875 8.59375V11.7188C4.6875 11.926 4.76981 12.1247 4.91632 12.2712C5.06284 12.4177 5.26155 12.5 5.46875 12.5ZM6.25 9.375H8.59375C8.80095 9.375 8.99966 9.29269 9.14618 9.14618C9.29269 8.99966 9.375 8.80095 9.375 8.59375V6.25H10.9375V8.59375C10.9375 8.80095 11.0198 8.99966 11.1663 9.14618C11.3128 9.29269 11.5115 9.375 11.7188 9.375H14.0625V10.9375H11.7188C11.5115 10.9375 11.3128 11.0198 11.1663 11.1663C11.0198 11.3128 10.9375 11.5115 10.9375 11.7188V14.0625H9.375V11.7188C9.375 11.5115 9.29269 11.3128 9.14618 11.1663C8.99966 11.0198 8.80095 10.9375 8.59375 10.9375H6.25V9.375Z" fill="#049585"/>
<path d="M47.9297 20.3594L35.4297 15.6719C35.2528 15.6094 35.0597 15.6094 34.8828 15.6719L32.8125 16.4531V3.90625C32.8106 3.28522 32.5631 2.69015 32.124 2.25102C31.6848 1.81188 31.0898 1.56435 30.4688 1.5625H3.90625C3.28522 1.56435 2.69015 1.81188 2.25102 2.25102C1.81188 2.69015 1.56435 3.28522 1.5625 3.90625V46.0938C1.56435 46.7148 1.81188 47.3098 2.25102 47.749C2.69015 48.1881 3.28522 48.4356 3.90625 48.4375H30.4688C31.0457 48.4364 31.6019 48.222 32.0303 47.8354C32.4586 47.4489 32.7289 46.9176 32.7891 46.3438L34.5938 48.2031C34.6674 48.2774 34.755 48.3363 34.8516 48.3766C34.9481 48.4168 35.0517 48.4375 35.1562 48.4375C35.2608 48.4375 35.3644 48.4168 35.4609 48.3766C35.5575 48.3363 35.6451 48.2774 35.7188 48.2031L45.0078 38.6406C46.098 37.5779 46.9634 36.3068 47.5526 34.903C48.1418 33.4992 48.4427 31.9912 48.4375 30.4688V21.0938C48.4372 20.9343 48.3885 20.7787 48.2979 20.6475C48.2072 20.5164 48.0788 20.4159 47.9297 20.3594ZM23.4375 3.125H26.5625V10.2578L25.4297 9.50781C25.3031 9.42132 25.1533 9.37505 25 9.37505C24.8467 9.37505 24.6969 9.42132 24.5703 9.50781L23.4375 10.2578V3.125ZM31.25 46.0938C31.25 46.3009 31.1677 46.4997 31.0212 46.6462C30.8747 46.7927 30.676 46.875 30.4688 46.875H3.90625C3.69905 46.875 3.50034 46.7927 3.35382 46.6462C3.20731 46.4997 3.125 46.3009 3.125 46.0938V3.90625C3.125 3.69905 3.20731 3.50034 3.35382 3.35382C3.50034 3.20731 3.69905 3.125 3.90625 3.125H21.875V11.7188C21.874 11.8604 21.9121 11.9995 21.9852 12.1208C22.0583 12.2421 22.1634 12.3409 22.2891 12.4062C22.4122 12.4751 22.5522 12.508 22.6931 12.501C22.834 12.4941 22.9701 12.4478 23.0859 12.3672L25 11.0938L26.9141 12.3672C27.0316 12.4446 27.1678 12.4888 27.3083 12.4952C27.4489 12.5015 27.5885 12.4699 27.7126 12.4034C27.8366 12.337 27.9404 12.2384 28.013 12.1178C28.0856 11.9973 28.1243 11.8594 28.125 11.7188V3.125H30.4688C30.676 3.125 30.8747 3.20731 31.0212 3.35382C31.1677 3.50034 31.25 3.69905 31.25 3.90625V17.0391L22.3828 20.3594C22.2337 20.4159 22.1053 20.5164 22.0146 20.6475C21.9239 20.7787 21.8753 20.9343 21.875 21.0938V30.4688C21.8698 31.9912 22.1707 33.4992 22.7599 34.903C23.3491 36.3068 24.2145 37.5779 25.3047 38.6406L31.25 44.7578V46.0938ZM46.875 30.4688C46.8778 31.7884 46.615 33.0952 46.1023 34.3112C45.5896 35.5272 44.8374 36.6276 43.8906 37.5469L35.1562 46.5391L26.4219 37.5469C26.4198 37.5469 26.4178 37.5461 26.4163 37.5446C26.4149 37.5431 26.4141 37.5411 26.4141 37.5391C25.4693 36.6203 24.7189 35.5209 24.2076 34.3063C23.6962 33.0916 23.4344 31.7866 23.4375 30.4688V21.6328L35.1562 17.2422L46.875 21.6328V30.4688Z" fill="#049585"/>
<path d="M34.375 28.9062H35.9375V30.4688H34.375V28.9062Z" fill="#049585"/>
<path d="M35.1562 19.5312C33.1475 19.5312 31.1839 20.1269 29.5137 21.2429C27.8436 22.3589 26.5418 23.9451 25.7731 25.8009C25.0044 27.6567 24.8033 29.6988 25.1951 31.6689C25.587 33.639 26.5543 35.4487 27.9747 36.8691C29.3951 38.2894 31.2047 39.2567 33.1749 39.6486C35.145 40.0405 37.1871 39.8394 39.0429 39.0707C40.8987 38.302 42.4849 37.0002 43.6009 35.33C44.7168 33.6598 45.3125 31.6962 45.3125 29.6875C45.31 26.9947 44.2392 24.4128 42.3351 22.5087C40.4309 20.6046 37.8491 19.5337 35.1562 19.5312ZM35.1562 38.2813C33.4566 38.2813 31.7951 37.7772 30.3818 36.8329C28.9686 35.8886 27.8671 34.5465 27.2167 32.9762C26.5662 31.4059 26.396 29.678 26.7276 28.0109C27.0592 26.3439 27.8777 24.8127 29.0795 23.6108C30.2814 22.4089 31.8127 21.5905 33.4797 21.2589C35.1467 20.9273 36.8746 21.0975 38.4449 21.7479C40.0152 22.3984 41.3574 23.4998 42.3017 24.9131C43.246 26.3263 43.75 27.9878 43.75 29.6875C43.7486 31.9663 42.8427 34.1513 41.2313 35.7626C39.62 37.3739 37.435 38.2798 35.1562 38.2813Z" fill="#049585"/>
<path d="M41.4062 28.125C41.199 28.125 41.0003 28.2073 40.8538 28.3538C40.7073 28.5003 40.625 28.699 40.625 28.9062H38.9844C38.8825 28.4185 38.689 27.9546 38.4141 27.5391L39.5781 26.375C39.7252 26.5211 39.9244 26.6027 40.1317 26.602C40.339 26.6013 40.5375 26.5182 40.6836 26.3711C40.8297 26.224 40.9113 26.0249 40.9106 25.8175C40.9099 25.6102 40.8268 25.4117 40.6797 25.2656L39.5781 24.1641C39.4306 24.0177 39.2312 23.9356 39.0234 23.9356C38.8156 23.9356 38.6163 24.0177 38.4688 24.1641C38.3232 24.3104 38.2416 24.5084 38.2416 24.7148C38.2416 24.9212 38.3232 25.1192 38.4688 25.2656L37.3047 26.4297C36.8892 26.1548 36.4252 25.9612 35.9375 25.8594V24.2188C36.1447 24.2188 36.3434 24.1364 36.4899 23.9899C36.6364 23.8434 36.7188 23.6447 36.7188 23.4375C36.7188 23.2303 36.6364 23.0316 36.4899 22.8851C36.3434 22.7386 36.1447 22.6562 35.9375 22.6562H34.375C34.1678 22.6562 33.9691 22.7386 33.8226 22.8851C33.6761 23.0316 33.5938 23.2303 33.5938 23.4375C33.5938 23.6447 33.6761 23.8434 33.8226 23.9899C33.9691 24.1364 34.1678 24.2188 34.375 24.2188V25.8594C33.8873 25.9612 33.4233 26.1548 33.0078 26.4297L31.8437 25.2656C31.9893 25.1192 32.0709 24.9212 32.0709 24.7148C32.0709 24.5084 31.9893 24.3104 31.8437 24.1641C31.6962 24.0177 31.4969 23.9356 31.2891 23.9356C31.0813 23.9356 30.8819 24.0177 30.7344 24.1641L29.6328 25.2656C29.4857 25.4117 29.4026 25.6102 29.4019 25.8175C29.4012 26.0249 29.4828 26.224 29.6289 26.3711C29.775 26.5182 29.9735 26.6013 30.1808 26.602C30.3881 26.6027 30.5873 26.5211 30.7344 26.375L31.8984 27.5391C31.6235 27.9546 31.43 28.4185 31.3281 28.9062H29.6875C29.6875 28.699 29.6052 28.5003 29.4587 28.3538C29.3122 28.2073 29.1135 28.125 28.9062 28.125C28.699 28.125 28.5003 28.2073 28.3538 28.3538C28.2073 28.5003 28.125 28.699 28.125 28.9062V30.4688C28.125 30.676 28.2073 30.8747 28.3538 31.0212C28.5003 31.1677 28.699 31.25 28.9062 31.25C29.1135 31.25 29.3122 31.1677 29.4587 31.0212C29.6052 30.8747 29.6875 30.676 29.6875 30.4688H31.3281C31.43 30.9565 31.6235 31.4204 31.8984 31.8359L30.7344 33C30.588 32.8545 30.39 32.7728 30.1836 32.7728C29.9772 32.7728 29.7792 32.8545 29.6328 33C29.4864 33.1475 29.4043 33.3469 29.4043 33.5547C29.4043 33.7625 29.4864 33.9619 29.6328 34.1094L30.7344 35.2109C30.8825 35.3562 31.0816 35.4375 31.2891 35.4375C31.4965 35.4375 31.6957 35.3562 31.8437 35.2109C31.9893 35.0646 32.0709 34.8666 32.0709 34.6602C32.0709 34.4538 31.9893 34.2558 31.8437 34.1094L33.0078 32.9453C33.4233 33.2202 33.8873 33.4138 34.375 33.5156V35.1562C34.1678 35.1562 33.9691 35.2386 33.8226 35.3851C33.6761 35.5316 33.5938 35.7303 33.5938 35.9375C33.5938 36.1447 33.6761 36.3434 33.8226 36.4899C33.9691 36.6364 34.1678 36.7188 34.375 36.7188H35.9375C36.1447 36.7188 36.3434 36.6364 36.4899 36.4899C36.6364 36.3434 36.7188 36.1447 36.7188 35.9375C36.7188 35.7303 36.6364 35.5316 36.4899 35.3851C36.3434 35.2386 36.1447 35.1562 35.9375 35.1562V33.5156C36.4252 33.4138 36.8892 33.2202 37.3047 32.9453L38.4688 34.1094C38.3232 34.2558 38.2416 34.4538 38.2416 34.6602C38.2416 34.8666 38.3232 35.0646 38.4688 35.2109C38.6168 35.3562 38.816 35.4375 39.0234 35.4375C39.2309 35.4375 39.43 35.3562 39.5781 35.2109L40.6797 34.1094C40.8261 33.9619 40.9082 33.7625 40.9082 33.5547C40.9082 33.3469 40.8261 33.1475 40.6797 33C40.5333 32.8545 40.3353 32.7728 40.1289 32.7728C39.9225 32.7728 39.7245 32.8545 39.5781 33L38.4141 31.8359C38.689 31.4204 38.8825 30.9565 38.9844 30.4688H40.625C40.625 30.676 40.7073 30.8747 40.8538 31.0212C41.0003 31.1677 41.199 31.25 41.4062 31.25C41.6135 31.25 41.8122 31.1677 41.9587 31.0212C42.1052 30.8747 42.1875 30.676 42.1875 30.4688V28.9062C42.1875 28.699 42.1052 28.5003 41.9587 28.3538C41.8122 28.2073 41.6135 28.125 41.4062 28.125ZM35.1562 32.0312C34.6927 32.0312 34.2396 31.8938 33.8541 31.6363C33.4687 31.3787 33.1683 31.0127 32.9909 30.5844C32.8135 30.1561 32.7671 29.6849 32.8575 29.2303C32.948 28.7756 33.1712 28.358 33.499 28.0302C33.8267 27.7024 34.2444 27.4792 34.699 27.3888C35.1537 27.2984 35.6249 27.3448 36.0532 27.5222C36.4814 27.6996 36.8475 28 37.105 28.3854C37.3625 28.7708 37.5 29.2239 37.5 29.6875C37.4981 30.3085 37.2506 30.9036 36.8115 31.3427C36.3723 31.7819 35.7773 32.0294 35.1562 32.0312Z" fill="#049585"/>
</svg>
