<svg width="50" height="46" viewBox="0 0 50 46" fill="none" xmlns="http://www.w3.org/2000/svg">
<path d="M45.3125 33.5C44.6199 33.5009 43.9471 33.7314 43.3996 34.1555C42.852 34.5796 42.4605 35.1734 42.2864 35.8437H39.0625V30.375H42.9688C43.1759 30.375 43.3747 30.2927 43.5212 30.1462C43.6677 29.9997 43.75 29.8009 43.75 29.5937V21.6823C44.4865 21.4922 45.1283 21.0399 45.5552 20.4104C45.982 19.7809 46.1647 19.0173 46.0688 18.2628C45.973 17.5082 45.6053 16.8146 45.0346 16.3117C44.4638 15.8089 43.7294 15.5315 42.9688 15.5315C42.2081 15.5315 41.4737 15.8089 40.9029 16.3117C40.3322 16.8146 39.9645 17.5082 39.8687 18.2628C39.7728 19.0173 39.9555 19.7809 40.3823 20.4104C40.8092 21.0399 41.451 21.4922 42.1875 21.6823V28.8125H39.0625V25.5735C39.0608 24.1539 38.496 22.7929 37.4922 21.789C36.4884 20.7852 35.1274 20.2205 33.7077 20.2187H28.125V19.2579C29.6758 18.9003 31.0602 18.0287 32.053 16.7848C33.0458 15.5409 33.5888 13.9978 33.5938 12.4062C34.2923 12.4064 34.9707 12.1725 35.5206 11.7419C36.0706 11.3112 36.4604 10.7087 36.6278 10.0305C36.7951 9.35236 36.7304 8.63768 36.4439 8.00062C36.1574 7.36357 35.6657 6.8409 35.0473 6.5161C35.2503 6.36069 35.443 6.19227 35.6242 6.0119L36.4899 5.14618C36.5992 5.03692 36.6736 4.89771 36.7038 4.74616C36.7339 4.59461 36.7184 4.43752 36.6593 4.29476C36.6002 4.152 36.5 4.02999 36.3716 3.94414C36.2431 3.8583 36.092 3.81248 35.9375 3.81249H35.9159C35.2979 3.80709 34.6952 3.61926 34.1836 3.27259C33.6719 2.92591 33.2741 2.43583 33.0399 1.86385C32.5062 0.601032 31.6155 -0.478535 30.4771 -1.2424C29.677 -1.77336 28.7573 -2.09652 27.801 -2.18265C26.8447 -2.26877 25.882 -2.11514 25 -1.73566C24.118 -2.11511 23.1553 -2.26871 22.199 -2.18257C21.2427 -2.09643 20.323 -1.77327 19.5229 -1.2423C18.5633 -0.59837 17.7769 0.27198 17.2333 1.29188C16.6898 2.31178 16.4057 3.44984 16.4062 4.60555V6.15624C15.5774 6.15624 14.7826 6.48548 14.1965 7.07153C13.6105 7.65758 13.2812 8.45243 13.2812 9.28124C13.2812 10.11 13.6105 10.9049 14.1965 11.4909C14.7826 12.077 15.5774 12.4062 16.4062 12.4062C16.4112 13.9978 16.9542 15.5409 17.947 16.7848C18.9398 18.0287 20.3242 18.9003 21.875 19.2579V20.2187H16.2923C15.4408 20.219 14.6017 20.4225 13.8447 20.8124C13.0877 21.2022 12.4347 21.767 11.9398 22.46L9.375 19.8952V16.3125H14.8438C15.051 16.3125 15.2497 16.2302 15.3962 16.0837C15.5427 15.9372 15.625 15.7384 15.625 15.5312V13.9687H14.0625V14.75H3.125V0.687485H14.0625V4.59374H15.625V-0.0937648C15.625 -0.300965 15.5427 -0.499679 15.3962 -0.646192C15.2497 -0.792705 15.051 -0.875015 14.8438 -0.875015H2.34375C2.13655 -0.875015 1.93784 -0.792705 1.79132 -0.646192C1.64481 -0.499679 1.5625 -0.300965 1.5625 -0.0937648V15.5312C1.5625 15.7384 1.64481 15.9372 1.79132 16.0837C1.93784 16.2302 2.13655 16.3125 2.34375 16.3125H7.8125V20.2187C7.8125 20.3213 7.8327 20.4229 7.87196 20.5177C7.91122 20.6125 7.96876 20.6986 8.04131 20.7712L11.1975 23.9274C11.0251 24.4591 10.9374 25.0146 10.9375 25.5735V31.9375H3.91924C3.29441 31.9382 2.69537 32.1867 2.25354 32.6285C1.81172 33.0704 1.5632 33.6694 1.5625 34.2942V42.0808C1.5632 42.7056 1.81172 43.3046 2.25354 43.7464C2.69537 44.1883 3.29441 44.4368 3.91924 44.4375H16.3933C17.0181 44.4368 17.6171 44.1883 18.059 43.7464C18.5008 43.3046 18.7493 42.7056 18.75 42.0808V41.3125H23.4375V39.75H18.75V34.2942C18.7493 33.6716 18.5026 33.0745 18.0636 32.6331C17.6246 32.1916 17.0288 31.9416 16.4062 31.9375V29.1361L18.9788 31.7087L20.0837 30.6038L16.4062 26.9264V26.4687H15.9486L13.0649 23.585C13.4043 23.034 13.879 22.579 14.4439 22.2633C15.0088 21.9475 15.6451 21.7816 16.2923 21.7812H21.9739C22.1469 22.4523 22.5381 23.0468 23.0859 23.4713C23.6336 23.8958 24.307 24.1262 25 24.1262C25.693 24.1262 26.3664 23.8958 26.9141 23.4713C27.4619 23.0468 27.8531 22.4523 28.0261 21.7812H33.7077C34.7132 21.7824 35.6771 22.1823 36.388 22.8932C37.099 23.6042 37.4989 24.5681 37.5 25.5735V28.8125H35.1562V26.4687H33.5938V28.8125H32.2196C32.2199 28.3489 32.088 27.8948 31.8393 27.5035C31.5906 27.1122 31.2355 26.8 30.8156 26.6034C30.3957 26.4068 29.9284 26.3341 29.4687 26.3938C29.0089 26.4534 28.5757 26.6429 28.2198 26.9401C27.7379 26.5376 27.1192 26.3366 26.4927 26.3788C25.8662 26.421 25.2802 26.7033 24.8566 27.1668C24.433 27.6303 24.2045 28.2394 24.2188 28.8671C24.233 29.4949 24.4888 30.093 24.933 30.5368L27.6674 33.2712C27.7399 33.3437 27.8261 33.4013 27.9208 33.4405C28.0156 33.4798 28.1172 33.5 28.2198 33.5C28.3224 33.5 28.424 33.4798 28.5188 33.4405C28.6136 33.4013 28.6997 33.3437 28.7723 33.2712L31.5066 30.5368C31.5588 30.4848 31.6075 30.4305 31.6539 30.375H33.5938V43.6562H35.1562V40.5312H37.5V44.4375H39.0625V37.4062H42.2864C42.4325 37.9721 42.7344 38.4857 43.1578 38.8887C43.5812 39.2916 44.1091 39.5677 44.6815 39.6857C45.254 39.8036 45.848 39.7587 46.3962 39.556C46.9444 39.3532 47.4247 39.0008 47.7826 38.5388C48.1406 38.0767 48.3617 37.5236 48.4211 36.9421C48.4804 36.3607 48.3754 35.7742 48.1182 35.2494C47.8609 34.7246 47.4616 34.2825 46.9657 33.9733C46.4697 33.664 45.897 33.5 45.3125 33.5ZM41.4062 18.6562C41.4062 18.3472 41.4979 18.0451 41.6696 17.7882C41.8413 17.5312 42.0853 17.3309 42.3708 17.2127C42.6563 17.0944 42.9705 17.0635 43.2736 17.1238C43.5767 17.1841 43.8551 17.3329 44.0736 17.5514C44.2921 17.7699 44.4409 18.0483 44.5012 18.3514C44.5615 18.6545 44.5306 18.9687 44.4123 19.2542C44.294 19.5397 44.0938 19.7837 43.8368 19.9554C43.5799 20.1271 43.2778 20.2187 42.9688 20.2187C42.5545 20.2182 42.1574 20.0535 41.8644 19.7605C41.5715 19.4676 41.4067 19.0705 41.4062 18.6562ZM3.91924 42.875C3.70866 42.8748 3.50678 42.791 3.35788 42.6421C3.20899 42.4932 3.12523 42.2913 3.125 42.0808V34.2942C3.12523 34.0837 3.20899 33.8818 3.35788 33.7329C3.50678 33.584 3.70866 33.5002 3.91924 33.5H4.6875V36.625C4.68846 37.4535 5.018 38.2478 5.60385 38.8336C6.18969 39.4195 6.98399 39.749 7.8125 39.75C8.22675 39.7505 8.62389 39.9153 8.91681 40.2082C9.20973 40.5011 9.37451 40.8982 9.375 41.3125V42.875H3.91924ZM10.9375 42.875V41.3125C10.9366 40.484 10.607 39.6897 10.0212 39.1038C9.43533 38.518 8.64102 38.1884 7.8125 38.1875C7.39825 38.187 7.00111 38.0222 6.70819 37.7293C6.41527 37.4364 6.25049 37.0392 6.25 36.625V33.5H7.8125V34.0752C7.81302 34.5441 7.99951 34.9936 8.33107 35.3252C8.66262 35.6567 9.11216 35.8432 9.58105 35.8437H11.677C12.3094 35.8444 12.9158 36.096 13.363 36.5432C13.8102 36.9904 14.0618 37.5968 14.0625 38.2293V42.875H10.9375ZM17.1875 34.2942V42.0808C17.1873 42.2913 17.1035 42.4932 16.9546 42.6421C16.8057 42.791 16.6038 42.8748 16.3933 42.875H15.625V38.2293C15.6238 37.1826 15.2075 36.1791 14.4673 35.4389C13.7272 34.6988 12.7237 34.2824 11.677 34.2812H9.58105C9.52642 34.2812 9.47404 34.2595 9.43541 34.2208C9.39678 34.1822 9.37505 34.1298 9.375 34.0752V33.5H16.3933C16.6038 33.5002 16.8057 33.584 16.9546 33.7329C17.1035 33.8818 17.1873 34.0837 17.1875 34.2942ZM14.8438 27.5736V31.9375H12.5V25.5735C12.5 25.4628 12.5058 25.3534 12.5151 25.245L14.8438 27.5736ZM21.0938 12.4062H28.9062V17.342C28.1708 17.6937 27.3659 17.8758 26.5507 17.875H23.4493C22.6341 17.8758 21.8292 17.6937 21.0938 17.342V12.4062ZM30.4688 16.2213V12.2349L32.0312 11.8443V12.3944C32.0319 13.8255 31.4708 15.1996 30.4688 16.2213ZM33.5938 10.8437V7.71874C34.0082 7.71874 34.4056 7.88336 34.6986 8.17638C34.9916 8.46941 35.1562 8.86684 35.1562 9.28124C35.1562 9.69564 34.9916 10.0931 34.6986 10.3861C34.4056 10.6791 34.0082 10.8437 33.5938 10.8437ZM17.9688 4.60555C17.9685 3.70612 18.1897 2.82045 18.6128 2.02677C19.036 1.23309 19.6481 0.555823 20.395 0.0547705C21.0198 -0.357384 21.7429 -0.596069 22.4903 -0.636841C23.2377 -0.677612 23.9825 -0.519004 24.6484 -0.177261C24.7575 -0.122312 24.8779 -0.0936894 25 -0.0936894C25.1221 -0.0936894 25.2425 -0.122312 25.3516 -0.177261C26.0175 -0.51901 26.7622 -0.677673 27.5096 -0.637005C28.257 -0.596338 28.9801 -0.357802 29.605 0.0541844C30.4915 0.648799 31.1852 1.48926 31.6009 2.47245C31.8512 3.07212 32.2221 3.61398 32.6905 4.0644C33.1589 4.51483 33.7148 4.86422 34.3238 5.0909C33.5464 5.77998 32.5428 6.15915 31.5039 6.15624C30.2287 6.15749 28.9856 5.75687 27.9511 5.01129C26.9166 4.26572 26.1434 3.21312 25.7412 2.00301C25.695 1.86425 25.6107 1.74125 25.498 1.64803C25.3853 1.5548 25.2487 1.49508 25.1037 1.47567C25.0693 1.47109 25.0347 1.46878 25 1.46874C24.8714 1.46877 24.7449 1.50054 24.6315 1.56122C24.5181 1.62189 24.4215 1.70961 24.3502 1.81659L23.1423 3.62821C22.9348 3.93927 22.6972 4.22911 22.4328 4.49354C21.9069 5.02233 21.2813 5.44155 20.5923 5.72696C19.9033 6.01236 19.1645 6.15827 18.4188 6.15624H17.9688V4.60555ZM18.4188 7.71874C19.3698 7.72133 20.3119 7.53526 21.1906 7.17131C22.0693 6.80736 22.867 6.27275 23.5377 5.59842C23.8747 5.26119 24.1777 4.89157 24.4423 4.49491L24.8656 3.86014C25.5321 5.03287 26.4976 6.00786 27.6638 6.68572C28.83 7.36357 30.155 7.72003 31.5039 7.71874C31.6811 7.71874 31.8568 7.71096 32.0312 7.6954V10.2338L29.5914 10.8437H20.4086L17.9688 10.2338V7.71874H18.4188ZM14.8438 9.28124C14.8442 8.86699 15.009 8.46984 15.3019 8.17692C15.5949 7.88401 15.992 7.71923 16.4062 7.71874V10.8437C15.992 10.8432 15.5949 10.6785 15.3019 10.3855C15.009 10.0926 14.8442 9.69549 14.8438 9.28124ZM17.9688 12.3944V11.8443L19.5312 12.2349V16.2213C18.5292 15.1996 17.9681 13.8255 17.9688 12.3944ZM25 22.5625C24.5858 22.562 24.1886 22.3972 23.8957 22.1043C23.6028 21.8114 23.438 21.4142 23.4375 21V19.4375C23.4415 19.4375 23.4454 19.4375 23.4493 19.4375H26.5507C26.5547 19.4375 26.5586 19.4375 26.5625 19.4375V21C26.562 21.4142 26.3972 21.8114 26.1043 22.1043C25.8114 22.3972 25.4142 22.562 25 22.5625ZM30.4018 29.4319L28.2198 31.614L26.0378 29.4319C25.8735 29.2676 25.7812 29.0448 25.7812 28.8125C25.7812 28.5802 25.8735 28.3573 26.0378 28.1931C26.2022 28.029 26.425 27.9369 26.6572 27.9369C26.8895 27.9369 27.1122 28.029 27.2767 28.1931L27.6673 28.5837C27.7398 28.6562 27.826 28.7138 27.9207 28.753C28.0155 28.7923 28.1171 28.8125 28.2197 28.8125C28.3223 28.8125 28.4239 28.7923 28.5187 28.753C28.6135 28.7138 28.6996 28.6562 28.7722 28.5837L29.1628 28.1931C29.2441 28.1117 29.3407 28.0472 29.447 28.0032C29.5533 27.9591 29.6672 27.9365 29.7822 27.9365C29.8973 27.9365 30.0112 27.9591 30.1175 28.0032C30.2237 28.0472 30.3203 28.1117 30.4017 28.1931C30.483 28.2744 30.5475 28.371 30.5916 28.4773C30.6356 28.5835 30.6582 28.6975 30.6582 28.8125C30.6582 28.9275 30.6356 29.0414 30.5916 29.1477C30.5475 29.254 30.483 29.3506 30.4017 29.4319H30.4018ZM37.5 30.375V31.9375H35.1562V30.375H37.5ZM37.5 38.9687H35.1562V33.5H37.5V35.8437H36.7188V37.4062H37.5V38.9687ZM45.3125 38.1875C45.0035 38.1875 44.7014 38.0959 44.4444 37.9242C44.1875 37.7525 43.9872 37.5084 43.8689 37.2229C43.7507 36.9374 43.7197 36.6233 43.78 36.3202C43.8403 36.0171 43.9891 35.7387 44.2076 35.5201C44.4262 35.3016 44.7046 35.1528 45.0077 35.0925C45.3108 35.0322 45.6249 35.0632 45.9104 35.1814C46.1959 35.2997 46.44 35.5 46.6117 35.7569C46.7834 36.0139 46.875 36.316 46.875 36.625C46.8745 37.0392 46.7097 37.4364 46.4168 37.7293C46.1239 38.0222 45.7267 38.187 45.3125 38.1875Z" fill="#049585"/>
<path d="M22.6562 7.71875H21.0938V9.28125H22.6562V7.71875Z" fill="#049585"/>
<path d="M28.9062 7.71875H27.3438V9.28125H28.9062V7.71875Z" fill="#049585"/>
<path d="M13.2813 6.15625V1.46875H11.7188V5.73818L9.72296 7.06875L10.5897 8.36875L12.9334 6.80625C13.0404 6.73491 13.1281 6.63825 13.1888 6.52486C13.2495 6.41147 13.2813 6.28486 13.2813 6.15625Z" fill="#049585"/>
<path d="M10.9375 4.59375V3.86025C10.937 3.43332 10.7672 3.02402 10.4653 2.72214C10.1634 2.42026 9.75409 2.25047 9.32715 2.25C8.09706 2.25137 6.91775 2.74063 6.04794 3.61043C5.17813 4.48024 4.68887 5.65956 4.6875 6.88965V12.6272C4.68685 12.902 4.75661 13.1723 4.89012 13.4124C5.02362 13.6526 5.21643 13.8545 5.45014 13.9989C5.68386 14.1434 5.95068 14.2255 6.22516 14.2375C6.49964 14.2495 6.77263 14.191 7.01807 14.0676L8.66455 13.2443C9.3492 12.9049 9.92503 12.3804 10.3268 11.7303C10.7285 11.0803 10.9401 10.3307 10.9375 9.5665V9.28125H9.375V9.5665C9.37662 10.0403 9.24544 10.5051 8.99633 10.9081C8.74722 11.3112 8.39015 11.6364 7.96563 11.8468L6.31934 12.6699C6.31204 12.6736 6.30393 12.6753 6.29577 12.675C6.28761 12.6746 6.27968 12.6722 6.27273 12.6679C6.26578 12.6636 6.26005 12.6576 6.25607 12.6505C6.25209 12.6433 6.25 12.6353 6.25 12.6271V6.88965C6.25091 6.07382 6.5754 5.29166 7.15228 4.71478C7.72916 4.13789 8.51132 3.8134 9.32715 3.8125C9.33982 3.81253 9.35196 3.81756 9.36093 3.82651C9.36989 3.83546 9.37495 3.84759 9.375 3.86025V4.59375H10.9375Z" fill="#049585"/>
<path d="M40.625 3.03125H39.0625V4.59375H40.625V3.03125Z" fill="#049585"/>
<path d="M47.6562 3.03125H42.1875V4.59375H47.6562V3.03125Z" fill="#049585"/>
<path d="M46.875 6.15625H39.0625V7.71875H46.875V6.15625Z" fill="#049585"/>
<path d="M44.5312 9.28125H39.0625V10.8438H44.5312V9.28125Z" fill="#049585"/>
<path d="M47.6562 9.28125H46.0938V10.8438H47.6562V9.28125Z" fill="#049585"/>
</svg>
