<svg width="42" height="50" viewBox="0 0 42 50" fill="none" xmlns="http://www.w3.org/2000/svg">
<g clip-path="url(#clip0_14_7)">
<path fill-rule="evenodd" clip-rule="evenodd" d="M36.789 50.0001C33.918 50.0001 31.582 47.6421 31.582 44.7421C31.582 42.0971 33.526 39.9011 36.047 39.5371V34.7361C36.047 32.0591 33.893 29.8801 31.244 29.8801C28.602 29.8801 26.535 32.0141 26.535 34.7361V43.6621C26.535 47.1241 23.747 49.9401 20.319 49.9401C16.892 49.9401 14.104 47.1241 14.104 43.6621V35.1531C13.5201 35.0126 12.9909 34.7023 12.5834 34.2612C12.1758 33.8202 11.908 33.2682 11.814 32.6751L11.796 32.6901C11.304 32.1901 -0.273998 20.3261 0.0190024 11.3881C0.151002 7.27506 1.787 5.05206 3.134 3.91206C4.342 2.88906 5.654 2.44606 6.546 2.33506C6.858 0.991061 8.056 -0.0129395 9.481 -0.0129395C11.142 -0.0129395 12.493 1.35206 12.493 3.02906C12.493 4.70706 11.142 6.07206 9.481 6.07206C8.071 6.07206 6.884 5.09006 6.556 3.76806C5.955 3.87306 4.983 4.20506 4.042 5.00206C2.424 6.37006 1.521 8.59506 1.428 11.4351C1.197 18.5151 9.5 28.1151 12.059 30.9011C12.2991 30.3794 12.6835 29.9372 13.1666 29.6268C13.6498 29.3164 14.2117 29.1506 14.786 29.1491C15.991 29.1491 17.033 29.8651 17.514 30.8981C20.076 28.1101 28.373 18.5131 28.142 11.4351C28.05 8.59406 27.146 6.37006 25.53 5.00206C24.588 4.20506 23.617 3.87306 23.014 3.76806C22.687 5.09006 21.501 6.07206 20.094 6.07206C18.432 6.07206 17.081 4.70706 17.081 3.02906C17.081 1.35206 18.432 -0.0129395 20.094 -0.0129395C21.517 -0.0129395 22.713 0.991061 23.025 2.33506C23.917 2.44606 25.229 2.88906 26.438 3.91206C27.784 5.05206 29.419 7.27506 29.552 11.3881C29.845 20.3261 18.267 32.1901 17.774 32.6901L17.76 32.6771C17.6666 33.2615 17.4046 33.806 17.0062 34.2437C16.6077 34.6814 16.0902 34.9933 15.517 35.1411V43.6621C15.517 46.3391 17.671 48.5171 20.319 48.5171C22.968 48.5171 25.122 46.3391 25.122 43.6621V34.7361C25.122 31.2151 27.812 28.4571 31.244 28.4571C34.672 28.4571 37.46 31.2741 37.46 34.7361V39.5271C40.013 39.8601 41.995 42.0711 41.995 44.7421C41.995 47.6421 39.66 50.0001 36.789 50.0001ZM9.481 4.64906C10.363 4.64906 11.08 3.92206 11.08 3.02906C11.0824 2.6024 10.9153 2.19224 10.6155 1.88868C10.3157 1.58511 9.90765 1.41297 9.481 1.41006C8.598 1.41006 7.88 2.13606 7.88 3.02906C7.88 3.92206 8.598 4.64906 9.481 4.64906ZM20.094 1.41006C19.211 1.41006 18.494 2.13606 18.494 3.02906C18.494 3.92206 19.211 4.64906 20.094 4.64906C20.974 4.64906 21.691 3.92206 21.691 3.02906C21.6934 2.60275 21.5266 2.19289 21.2272 1.88938C20.9278 1.58587 20.5203 1.4135 20.094 1.41006ZM16.387 32.1891C16.3889 31.7624 16.2213 31.3525 15.9211 31.0493C15.6209 30.7461 15.2127 30.5744 14.786 30.5721C14.3597 30.575 13.9519 30.7468 13.6522 31.05C13.3524 31.3531 13.1851 31.7627 13.187 32.1891C13.1846 32.6157 13.3517 33.0259 13.6515 33.3294C13.9513 33.633 14.3593 33.8052 14.786 33.8081C15.669 33.8081 16.387 33.0821 16.387 32.1891ZM36.789 40.9061C34.697 40.9061 32.995 42.6271 32.995 44.7421C32.995 46.8561 34.697 48.5771 36.789 48.5771C38.881 48.5771 40.582 46.8561 40.582 44.7421C40.582 42.6271 38.881 40.9061 36.789 40.9061ZM36.786 47.3041C35.388 47.3041 34.249 46.1541 34.249 44.7421C34.249 43.3291 35.388 42.1801 36.786 42.1801C38.187 42.1801 39.326 43.3291 39.326 44.7421C39.326 46.1541 38.187 47.3041 36.786 47.3041ZM36.786 43.6031C36.166 43.6031 35.662 44.1141 35.662 44.7421C35.662 45.3701 36.166 45.8811 36.786 45.8811C37.408 45.8811 37.913 45.3701 37.913 44.7421C37.913 44.1141 37.408 43.6031 36.786 43.6031Z" fill="#049585"/>
</g>
<defs>
<clipPath id="clip0_14_7">
<rect width="42" height="50" fill="white"/>
</clipPath>
</defs>
</svg>
