<svg width="50" height="40" viewBox="0 0 50 40" fill="none" xmlns="http://www.w3.org/2000/svg">
<g clip-path="url(#clip0_14_13)">
<path fill-rule="evenodd" clip-rule="evenodd" d="M0.0019989 39.989V0.00195312L21.124 0.0429531L25.585 4.02195H49.996V39.989H0.0019989ZM48.784 5.22695H25.121L20.659 1.24695L1.214 1.20995V16.379H4.85V13.317L10.558 7.63895H45.451V10.552H48.784V5.22695ZM6.062 14.671V16.379H16.858L20.999 10.552H44.239V8.84395H11.516V14.671H6.062ZM10.304 13.466V9.59595L6.414 13.466H10.304ZM48.784 11.758H21.627L17.486 17.585H1.214V38.783H48.784V11.758ZM17.071 31.751H5.355V30.545H17.071V31.751ZM17.071 34.664H5.355V33.459H17.071V34.664ZM5.456 27.732H12.526V28.937H5.456V27.732ZM34.493 17.484C39.255 17.484 43.128 21.337 43.128 26.074C43.128 30.811 39.255 34.664 34.493 34.664C29.731 34.664 25.858 30.811 25.858 26.074C25.858 21.337 29.731 17.484 34.493 17.484ZM34.493 33.459C38.586 33.459 41.916 30.146 41.916 26.074C41.916 22.002 38.586 18.69 34.493 18.69C30.399 18.69 27.07 22.002 27.07 26.074C27.07 30.146 30.399 33.459 34.493 33.459ZM32.679 20.775H36.406V24.312H39.961V28.019H36.406V31.556H32.679V28.019H29.123V24.312H32.679V20.775ZM30.341 25.523V26.808H33.896V30.345H35.188V26.808H38.743V25.523H35.188V21.986H33.896V25.523H30.341Z" fill="#049585"/>
</g>
<defs>
<clipPath id="clip0_14_13">
<rect width="50" height="40" fill="white"/>
</clipPath>
</defs>
</svg>
