<svg width="35" height="35" viewBox="0 0 35 35" fill="none" xmlns="http://www.w3.org/2000/svg">
<g clip-path="url(#clip0_32_0)">
<path d="M17.5001 34.9996C16.7361 34.9996 16.052 34.6034 15.6701 33.9397C15.6661 33.9328 15.6622 33.9257 15.6583 33.9187L6.97924 18.0329C4.90754 14.241 4.96694 9.74013 7.13817 5.99322C9.2623 2.32752 13.0352 0.0880034 17.2307 0.0024176C17.4099 -0.0012738 17.5901 -0.0012738 17.7692 0.0024176C21.9648 0.0880034 25.7377 2.32752 27.8619 5.99322C30.0331 9.74013 30.0925 14.2409 28.0208 18.0329L19.3418 33.9187C19.3379 33.9257 19.334 33.9328 19.3299 33.9397C18.9481 34.6034 18.2641 34.9996 17.5001 34.9996ZM17.5 2.18718C17.4249 2.18718 17.35 2.18793 17.2752 2.18944C13.8504 2.2593 10.7684 4.09126 9.03077 7.08998C7.24611 10.1699 7.19676 13.8686 8.89884 16.984L17.5 32.7272L26.1011 16.9841C27.8032 13.8686 27.7539 10.1699 25.9691 7.08998C24.2315 4.09133 21.1495 2.2593 17.7247 2.18944C17.6501 2.18793 17.5751 2.18718 17.5 2.18718Z" fill="#1FB49D"/>
<path d="M17.5 15.8594C14.7861 15.8594 12.5781 13.6514 12.5781 10.9375C12.5781 8.22356 14.7861 6.01562 17.5 6.01562C20.2139 6.01562 22.4219 8.22356 22.4219 10.9375C22.4219 13.6514 20.214 15.8594 17.5 15.8594ZM17.5 8.20312C15.9923 8.20312 14.7656 9.42977 14.7656 10.9375C14.7656 12.4452 15.9923 13.6719 17.5 13.6719C19.0077 13.6719 20.2344 12.4452 20.2344 10.9375C20.2344 9.42977 19.0077 8.20312 17.5 8.20312Z" fill="#1FB49D"/>
</g>
<defs>
<clipPath id="clip0_32_0">
<rect width="35" height="35" fill="white"/>
</clipPath>
</defs>
</svg>
