<svg width="50" height="48" viewBox="0 0 50 48" fill="none" xmlns="http://www.w3.org/2000/svg">
<path d="M47.9837 31.6656C43.39 29.5452 38.5096 28.1112 33.4989 27.4098V26.4485L41.4732 18.4743C41.7013 18.2482 41.8824 17.9793 42.0063 17.6831C42.1301 17.3868 42.1942 17.069 42.1949 16.7478C42.1956 16.4267 42.1329 16.1086 42.0103 15.8118C41.8877 15.515 41.7077 15.2453 41.4807 15.0183C41.2536 14.7912 40.9839 14.6112 40.6871 14.4886C40.3903 14.3661 40.0722 14.3033 39.7511 14.304C39.43 14.3047 39.1122 14.3688 38.8159 14.4927C38.5196 14.6165 38.2507 14.7977 38.0246 15.0257L20.6753 32.375H17.9688V33.9375H28.0302C28.1328 33.9375 28.2344 33.9173 28.3292 33.8781C28.424 33.8388 28.5102 33.7813 28.5827 33.7087L33.2702 29.0212C33.2889 29.0025 33.3064 28.9828 33.323 28.9626C34.4633 29.1235 35.5952 29.3233 36.7188 29.5618V38.625H13.2812V29.222C16.1456 28.7197 19.0482 28.4677 21.9562 28.4688V26.9063C15.6092 26.9018 9.31597 28.0704 3.39355 30.3529L2.06328 30.8646C1.91589 30.9212 1.78914 31.0213 1.69974 31.1515C1.61034 31.2816 1.56249 31.4358 1.5625 31.5938V45.6563C1.5625 45.8635 1.64481 46.0622 1.79132 46.2087C1.93784 46.3552 2.13655 46.4375 2.34375 46.4375H47.6562C47.8634 46.4375 48.0622 46.3552 48.2087 46.2087C48.3552 46.0622 48.4375 45.8635 48.4375 45.6563V32.375C48.4375 32.2258 48.3948 32.0797 48.3144 31.9539C48.2339 31.8282 48.1192 31.7282 47.9837 31.6656ZM31.9364 26.125V28.1452L27.7066 32.375H22.8851L39.1295 16.1306C39.2108 16.0492 39.3074 15.9847 39.4137 15.9407C39.52 15.8967 39.6339 15.874 39.7489 15.874C39.864 15.874 39.9779 15.8967 40.0842 15.9407C40.1904 15.9847 40.287 16.0492 40.3684 16.1306C40.4497 16.2119 40.5142 16.3085 40.5583 16.4148C40.6023 16.5211 40.6249 16.635 40.6249 16.75C40.6249 16.865 40.6023 16.979 40.5583 17.0852C40.5142 17.1915 40.4497 17.2881 40.3684 17.3694L32.1652 25.5726C32.0927 25.6451 32.0351 25.7312 31.9959 25.826C31.9566 25.9208 31.9364 26.0224 31.9364 26.125ZM46.875 44.875H3.125V32.1303L3.95449 31.8113C6.47668 30.8403 9.07322 30.0746 11.7188 29.5219V39.4063C11.7188 39.6135 11.8011 39.8122 11.9476 39.9587C12.0941 40.1052 12.2928 40.1875 12.5 40.1875H37.5C37.7072 40.1875 37.9059 40.1052 38.0524 39.9587C38.1989 39.8122 38.2812 39.6135 38.2812 39.4063V29.9184C41.2296 30.6422 44.106 31.6326 46.875 32.8774V44.875Z" fill="#049585"/>
<path d="M16.4062 32.375H14.8438V33.9375H16.4062V32.375Z" fill="#049585"/>
<path d="M38.8298 8.76308C39.1328 8.61897 39.3888 8.39203 39.5683 8.10851C39.7477 7.82499 39.8432 7.49647 39.8438 7.16094V6.02656C39.8432 5.55555 39.6559 5.10399 39.3228 4.77094C38.9898 4.43789 38.5382 4.25054 38.0672 4.25H37.8181C34.698 1.23234 30.524 -0.44934 26.1834 -0.437499H23.8166C19.476 -0.449315 15.302 1.23236 12.182 4.25H11.9329C11.4619 4.25052 11.0103 4.43785 10.6772 4.77091C10.3442 5.10396 10.1568 5.55554 10.1562 6.02656V7.16094C10.1568 7.49647 10.2523 7.82499 10.4317 8.10851C10.6112 8.39203 10.8672 8.61897 11.1702 8.76308C11.6324 9.50468 12.2725 10.1192 13.0323 10.5508C13.7921 10.9825 14.6476 11.2176 15.5213 11.2349C16.395 11.2522 17.2592 11.0512 18.0355 10.65C18.8118 10.2488 19.4757 9.66019 19.967 8.9375H20.658C21.1395 9.64563 21.7868 10.2253 22.5436 10.6259C23.3004 11.0265 24.1437 11.2359 25 11.2359C25.8563 11.2359 26.6996 11.0265 27.4564 10.6259C28.2132 10.2253 28.8605 9.64563 29.342 8.9375H30.033C30.5243 9.66019 31.1882 10.2488 31.9645 10.65C32.7408 11.0512 33.605 11.2522 34.4787 11.2349C35.3524 11.2176 36.2079 10.9825 36.9677 10.5508C37.7275 10.1192 38.3676 9.50468 38.8298 8.76308ZM23.8166 1.125H26.1834C29.5251 1.11581 32.7755 2.21481 35.4259 4.25H14.5741C17.2245 2.21481 20.4749 1.11581 23.8166 1.125ZM11.7188 6.02656C11.7188 5.9698 11.7414 5.91538 11.7816 5.87525C11.8217 5.83512 11.8761 5.81255 11.9329 5.8125H38.0672C38.1239 5.81255 38.1784 5.83512 38.2185 5.87525C38.2586 5.91539 38.2812 5.9698 38.2812 6.02656V7.16094C38.2812 7.21769 38.2586 7.27211 38.2185 7.31224C38.1784 7.35238 38.1239 7.37495 38.0672 7.375H11.9329C11.8761 7.37495 11.8217 7.35238 11.7816 7.31225C11.7414 7.27212 11.7188 7.2177 11.7188 7.16094V6.02656ZM15.625 9.67344C14.8247 9.67772 14.0452 9.41917 13.4061 8.9375H17.8439C17.2048 9.41917 16.4253 9.67772 15.625 9.67344ZM25 9.67344C24.1997 9.67772 23.4202 9.41917 22.7811 8.9375H27.2189C26.5798 9.41917 25.8003 9.67772 25 9.67344ZM36.5939 8.9375C35.9528 9.41532 35.1746 9.67343 34.375 9.67343C33.5754 9.67343 32.7972 9.41532 32.1561 8.9375H36.5939Z" fill="#049585"/>
<path d="M8.73937 10.046L4.83307 15.5147L6.10444 16.4229L10.0107 10.9541L8.73937 10.046Z" fill="#049585"/>
<path d="M17.9921 12.6543L16.4294 18.9043L17.9452 19.2833L19.5079 13.0333L17.9921 12.6543Z" fill="#049585"/>
<path d="M31.2265 12.6543L29.7108 13.0333L31.2735 19.2832L32.7892 18.9043L31.2265 12.6543Z" fill="#049585"/>
<path d="M41.2606 10.0458L39.9892 10.9539L43.8955 16.4227L45.1669 15.5146L41.2606 10.0458Z" fill="#049585"/>
</svg>
