<svg width="42" height="50" viewBox="0 0 42 50" fill="none" xmlns="http://www.w3.org/2000/svg">
<g clip-path="url(#clip0_27_0)">
<path d="M40.9657 4.23813L39.077 1.98872C38.4103 1.19497 37.5237 0.757812 36.5806 0.757812C35.6374 0.757812 34.7508 1.19497 34.084 1.98872L12.0844 28.1788C11.4177 28.9726 11.0504 30.028 11.0504 31.1508C11.0504 31.8403 11.1895 32.504 11.4507 33.0977L10.2008 34.6481C9.96533 34.9403 9.97337 35.4044 10.2188 35.6847C10.3382 35.8211 10.4918 35.8888 10.6451 35.8888C10.807 35.8888 10.9687 35.8134 11.0896 35.6633L12.2105 34.2728L13.9535 36.3469L11.3475 39.4503C10.6845 40.2382 10.4137 41.4006 10.6407 42.4845L10.9954 44.1703L1.39463 47.6867L9.04739 38.1158C9.2819 37.8226 9.27229 37.3585 9.02596 37.0794C8.77962 36.8002 8.38974 36.8115 8.15531 37.1049L0.320266 46.9036C-0.0476815 47.3688 -0.104011 48.0456 0.1801 48.588C0.399095 49.0057 0.767289 49.2423 1.15897 49.2423C1.27516 49.2423 1.39348 49.2215 1.51057 49.1784L11.4181 45.5495C12.008 45.3327 12.3542 44.6042 12.2058 43.8889L11.8356 42.129C11.7128 41.5428 11.8592 40.9139 12.218 40.4875L14.9723 37.2077C15.4351 37.4663 15.9439 37.6028 16.4703 37.6028C17.4135 37.6028 18.3002 37.1654 18.9668 36.3713L32.8496 19.8491C33.0901 19.5627 33.0902 19.0986 32.8497 18.8123C32.6093 18.5259 32.2193 18.5258 31.9788 18.8121L28.4635 22.9958L16.045 25.5377L22.7863 17.5123L35.2019 14.9708L33.992 16.4113C33.7515 16.6976 33.7515 17.1618 33.992 17.448C34.2325 17.7344 34.6224 17.7344 34.8629 17.4479L40.9654 10.1821C41.6326 9.38837 42.0001 8.33282 42.0001 7.20993C42.0001 6.08713 41.6327 5.03159 40.9657 4.23813ZM26.9535 24.7925L18.0956 35.3346C17.6615 35.8518 17.0843 36.1365 16.4702 36.1365C15.8561 36.1365 15.2789 35.8518 14.8446 35.3343C14.8446 35.3343 12.7277 32.7708 12.7236 32.7641C12.4371 32.2986 12.2821 31.739 12.2821 31.1508C12.2821 30.4197 12.5212 29.7324 12.9552 29.2156L14.5355 27.3343L26.9535 24.7925ZM40.0946 9.14525L36.7109 13.1741L24.2954 15.7154L34.9549 3.0255C35.389 2.50867 35.9664 2.22411 36.5806 2.22411C37.1948 2.22411 37.772 2.50877 38.206 3.0254L40.0948 5.275C40.5293 5.79182 40.7685 6.47893 40.7685 7.20993C40.7684 7.94103 40.5292 8.62823 40.0946 9.14525Z" fill="#049585"/>
<path d="M36.1057 4.74463C34.702 4.74463 33.5602 6.10409 33.5602 7.77498C33.5602 9.44588 34.702 10.8053 36.1057 10.8053C37.5093 10.8053 38.6512 9.44588 38.6512 7.77498C38.6512 6.10409 37.5093 4.74463 36.1057 4.74463ZM36.1057 9.33904C35.3813 9.33904 34.7919 8.63736 34.7919 7.77498C34.7919 6.9126 35.3813 6.21093 36.1057 6.21093C36.8301 6.21093 37.4195 6.9126 37.4195 7.77498C37.4195 8.63736 36.8302 9.33904 36.1057 9.33904Z" fill="#049585"/>
</g>
<defs>
<clipPath id="clip0_27_0">
<rect width="42" height="50" fill="white"/>
</clipPath>
</defs>
</svg>
